<svg width="270" height="99" viewBox="0 0 270 99" fill="none" xmlns="http://www.w3.org/2000/svg">
<g clip-path="url(#clip0_221_141)">
<path d="M0 36.557L12.026 56.858L16.827 52.279L3.738 32.76L0 36.557Z" fill="black"/>
<path d="M178.558 20.602L178.093 23.278L183.845 21.422L183.128 18.144L178.558 20.602Z" fill="black"/>
<path d="M145.044 2.326L126.536 23.55L131.922 22.001L149.543 0L145.044 2.326Z" fill="black"/>
<path d="M244.056 31.3451L248.599 28.9241L247.301 40.3001L244.056 31.3451Z" fill="black"/>
<path d="M215.82 38.6399L219.858 39.4669L225.012 36.9649L220.539 35.2959L215.82 38.6399Z" fill="black"/>
<path d="M76.5981 26.5609L77.2441 39.7439L82.8801 37.4669L81.1931 24.0959L76.5981 26.5609Z" fill="black"/>
<path d="M220.19 22.627L215.654 25.075L215.82 38.64L220.386 36.3L221.819 29.734L220.19 22.627Z" fill="black"/>
<path d="M219.567 39.5051L214.572 83.8751L222.557 82.3001L224.121 37.1121L219.567 39.5051Z" fill="black"/>
<path d="M229.345 86.0021L229.487 92.0191L244.815 96.9041L249.377 94.4861L234.337 82.8341L219.102 81.4961L214.572 83.8751L229.345 86.0021Z" fill="black"/>
<path d="M172.483 75.4189L176.25 73.3899L178.651 77.8259L182.201 75.8749L182.908 81.7229L205.192 85.6749L209.645 83.2259L178.917 64.5029L157.119 68.2389L152.867 72.2799L172.483 75.4189Z" fill="black"/>
<path d="M165.387 20.8279L160.926 23.2829L152.867 72.2799L157.381 69.9349L165.117 42.4239L165.387 20.8279Z" fill="black"/>
<path d="M129.789 27.395L126.235 29.288L126.534 30.473L134.992 25.1L131.296 21.134L126.536 23.55L129.789 27.395Z" fill="black"/>
<path d="M139.506 85.272L103.166 67.271L107.728 63.822L144.028 82.83L139.506 85.272Z" fill="black"/>
<path d="M106.581 18.2771L101.074 28.7201L106.893 26.9581L111.092 15.8301L106.581 18.2771Z" fill="black"/>
<path d="M56.6328 61.4189L51.9868 64.6079C51.9868 64.6079 52.9728 69.7919 54.2438 73.3979C55.5218 77.0169 58.5638 79.924 58.5638 79.924C60.5178 81.834 62.9128 83.2239 65.5848 84.0039C70.7238 85.4829 76.5238 84.5189 81.5028 81.3439C82.8048 80.5199 84.5718 79.201 85.6578 78.16C80.7638 81.13 56.6328 61.4189 56.6328 61.4189Z" fill="black"/>
<path d="M81.4961 38.669L85.7361 85.445L103.06 82.882L107.695 80.453L86.1961 35.865L81.7731 37.355L77.2441 39.744L81.4961 38.669Z" fill="black"/>
<path d="M16.5499 54.916L35.9059 98.814L54.2949 92.882L58.7849 89.864L20.6169 49.929L15.8409 52.791L12.0259 56.858L16.5499 54.916Z" fill="black"/>
<path d="M208.381 75.6269L208.641 77.7819C210.225 77.6039 211.889 77.3989 213.313 76.8919C214.973 76.3239 218.579 74.7179 219.95 73.5349C219.436 73.7219 210.987 75.9119 208.381 75.6269Z" fill="black"/>
<path d="M143.322 64.4181L144.012 67.8881C147.734 67.3341 150.929 65.9571 154.07 64.0691C156.041 62.8951 158.205 61.1241 158.888 60.6521C158.406 60.9601 143.322 64.4181 143.322 64.4181Z" fill="black"/>
<path d="M40.938 94.6521L39.501 91.4591L21.149 50.5001L20.772 49.6601L19.938 50.0451L19.381 50.3011L16.114 51.9051C15.632 51.0971 14.832 49.7431 14.276 48.8041L6.88903 36.3201L4.95703 33.0611L8.15303 31.0361C11.176 29.1081 14.59 27.3271 18.304 25.7411C25.699 22.5911 33.247 20.9251 40.13 20.9251C42.394 20.9251 44.585 21.1081 46.643 21.4661C50.074 21.8571 53.247 22.9831 55.868 24.7291C59.774 26.9131 62.849 30.3011 64.586 34.3091C66.012 37.6031 66.29 41.4611 65.384 45.4631L64.852 47.8141L66.805 46.3981C68.121 45.4431 69.551 44.6271 71.055 43.9721C73.655 42.8731 76.345 42.3121 79.04 42.3121C81.591 42.3121 84.003 42.8171 86.21 43.8101L87.633 44.4481L87.49 42.8951L86.871 36.1841L86.771 35.1201L85.735 35.3891L82.626 36.1951L82.081 24.7681L104.855 17.4921L104.671 26.3731L106.386 26.8131L111.36 17.2811L126.257 30.4931L126.878 31.0461L127.484 30.4761C129.525 28.5581 131.944 27.0191 134.673 25.9021L135.813 25.4361L135.032 24.4831L132.346 21.2091L149.449 1.49512L158.406 14.8601L144.695 22.2301L141.65 23.8681L145.107 23.9411C151.607 24.0781 157.363 26.8281 161.312 31.6831L162.74 33.4441L163.66 34.5751L162.132 36.1971L161.113 37.2791L157.687 40.9331L157.05 41.6121L157.739 42.2341L160.95 45.1251L162.192 46.2421L162.458 44.5941L163.69 36.9671L164.005 35.0091L164.015 35.0201L164.339 33.0201L166.178 21.7601H182.596H183.366L183.496 21.0011L183.817 19.0731H198.602L202.184 41.6941L202.417 43.1591L203.617 42.2881C205.068 41.2341 206.671 40.3671 208.383 39.7121C210.662 38.8521 213.008 38.4131 215.35 38.4131C218.138 38.4131 220.845 39.0571 223.186 40.2741C223.248 40.3191 223.336 40.3771 223.456 40.4251L224.567 40.8711L224.698 39.6791L224.966 37.2141L225.054 36.4061L224.259 36.2291L221.261 35.5591L221.115 23.7671L243.972 28.7981L245.689 37.2831L247.464 37.3181L249.235 30.0161L268.295 34.6511L248.817 93.3541L234.879 88.9771L234.78 83.5701L234.766 82.7951L233.997 82.6871L220.089 80.7241L220.876 73.6551L221.063 71.9731L219.558 72.7441C218.845 73.1071 218.155 73.4121 217.503 73.6521C215.229 74.5121 212.9 74.9471 210.581 74.9471C209.91 74.9471 209.236 74.9101 208.58 74.8361L207.392 74.7031L207.578 75.8831L208.557 82.1001L188.266 78.5211L187.203 69.2951L186.861 66.3381L185.494 68.9811L183.158 73.4861L178.857 65.5461L177.564 63.1611L177.156 65.8411L176.219 71.9871L158.435 69.1881L159.814 60.7531L160.129 58.8191L158.448 59.8241C155.537 61.5691 152.194 62.8821 148.231 63.8391C146.846 64.1771 145.399 64.4111 143.926 64.5331L143.092 64.6031V65.4401V81.3581L108.069 64.0491L106.753 63.4001L106.754 64.8671L106.778 79.6711L91.119 81.9781L90.461 74.8691L90.283 72.9671L88.918 74.3051C86.849 76.3301 84.518 77.9001 81.991 78.9721C79.406 80.0711 76.739 80.6271 74.066 80.6271C71.397 80.6271 68.889 80.0691 66.611 78.9781C62.391 76.9481 59.347 73.2651 58.041 68.6181C57.419 66.4351 57.25 64.1301 57.539 61.7641L57.848 59.2441L56.01 60.9941C54.714 62.2241 53.318 63.3991 51.858 64.4781L51.363 64.8431L51.519 65.4381L56.794 85.6861L57.726 89.2791L54.194 90.4021L44.262 93.5821L40.938 94.6521ZM45.396 40.2961C44.884 40.2961 44.355 40.3431 43.822 40.4391L43.146 40.5691L42.148 40.7611L42.449 41.7331L42.645 42.3651L45.485 51.6581L45.769 52.5511L46.191 53.8911L47.241 52.9571L47.938 52.3361C50.691 49.8621 51.656 47.3501 51.075 44.1821C50.709 42.2811 49.237 41.3341 48.391 40.9381C47.507 40.5121 46.495 40.2961 45.396 40.2961ZM121.531 40.6011L119.756 42.3291L115.081 46.8721L114.063 47.8611L115.388 48.3731L120.402 50.3081L121.942 50.9011L121.624 49.2831C121.21 47.1931 121.102 45.1011 121.296 43.0661L121.531 40.6011ZM141.947 35.4341C140.008 35.4341 138.132 36.2681 136.799 37.7201C134.777 39.9281 134.384 43.1851 135.822 45.8231L136.203 46.5381L136.816 47.6811L137.679 46.7151L138.234 46.1001L145.092 38.2701L145.631 37.6501L146.496 36.6561L145.262 36.1991L144.493 35.9151C143.686 35.5991 142.822 35.4341 141.947 35.4341Z" fill="white"/>
<path d="M152.438 47.032C152.372 47.09 152.311 47.164 152.259 47.24C152.328 47.177 152.395 47.122 152.466 47.064L152.438 47.032Z" fill="black"/>
<path d="M158.351 41.5549L161.776 37.9009L160.604 39.1449L160.638 38.9879L159.602 40.0809L156.18 43.7239L159.386 46.6079L159.967 43.0159L161.563 44.4449L158.351 41.5549Z" fill="black"/>
<path d="M158.351 41.5551L161.563 44.4451L162.793 36.8191L161.776 37.9011L158.351 41.5551Z" fill="black"/>
<path d="M134.677 50.694C134.951 50.971 134.698 50.772 135.005 50.982L137.1 49.505C136.789 49.285 136.481 49.049 136.198 48.785C133.158 46.015 133.948 39.785 135.92 36.375C130.729 40.563 130.999 47.01 134.677 50.694Z" fill="white"/>
<path d="M159.967 54.1819C156.507 57.0439 152.563 58.9099 147.352 60.1689C146.213 60.4299 145.097 60.6199 144.005 60.7159C135.734 61.5289 128.795 57.7309 126.162 51.5709C125.834 50.8249 125.581 50.0699 125.39 49.2639C124.172 44.0759 125.212 39.4399 127.775 35.8059C128.029 35.4539 128.296 35.1169 128.576 34.7739C128.445 34.8859 128.311 34.9819 128.202 35.0869C127.217 35.9639 126.345 36.9249 125.604 37.9749C123.038 41.6089 121.998 46.2479 123.227 51.4279C123.415 52.2339 123.664 52.9999 123.985 53.7289C126.619 59.9029 133.56 63.6989 141.824 62.8919C142.925 62.7859 144.037 62.6039 145.177 62.3289C150.394 61.0699 154.335 59.2119 157.795 56.3499C158.64 55.6549 159.455 54.8969 160.246 54.0679L160.173 53.9979C160.094 54.0659 160.035 54.1249 159.967 54.1819Z" fill="white"/>
<path d="M101.678 38.499L110.919 25.513L110.544 25.167L101.628 37.691L101.678 38.499Z" fill="white"/>
<path d="M162.793 36.8191L161.563 44.4451L159.967 43.0161L159.386 46.6081L156.18 43.7241L159.602 40.0811L160.638 38.9881L160.604 39.1451L161.776 37.9011L162.793 36.8191Z" fill="white"/>
<path d="M151.374 15.429L154.61 14.041L148.695 6.44995L146.757 9.15695L151.374 15.429Z" fill="white"/>
<path d="M61.7852 34.235C46.8492 16.04 19.9362 25.82 10.2632 34.331L10.6412 34.984C12.8652 33.708 15.2102 32.554 17.6772 31.519C27.2852 27.415 36.4452 26.212 43.7892 27.497C46.3852 27.795 49.1352 28.565 51.5282 30.167C54.8412 32.022 57.3522 34.661 58.8202 38.043C61.4252 44.033 59.1302 51.998 52.9952 58.666C60.6902 51.605 65.9552 44.849 61.7852 34.235Z" fill="white"/>
<path d="M92.2569 55.433C92.1869 55.103 92.1169 54.768 92.0099 54.445C91.1689 51.42 89.3619 49.005 86.9929 47.398C83.1589 44.794 77.8069 44.259 72.4729 46.511C69.6669 47.724 67.2269 49.591 65.2979 51.821C66.7809 50.545 68.4759 49.482 70.3069 48.69C75.6289 46.431 80.9809 46.965 84.8279 49.566C87.1969 51.175 88.9889 53.589 89.8479 56.61C89.9429 56.934 90.0169 57.274 90.0909 57.615C90.3189 58.765 90.4249 59.928 90.3809 61.119C90.2699 64.601 88.9789 68.107 86.8319 71.101C86.4859 71.575 86.1219 72.017 85.7449 72.455C86.9669 71.4 88.0579 70.233 88.9899 68.926C91.1459 65.951 92.4339 62.438 92.5479 58.935C92.5959 57.766 92.4989 56.584 92.2569 55.433Z" fill="white"/>
<path d="M77.5501 50.9921C77.5291 51.0251 79.7171 48.8241 79.6921 48.8241C76.9551 48.7201 75.7981 51.3011 75.7031 51.5041C76.2651 51.2321 76.8851 51.0551 77.5501 50.9921Z" fill="white"/>
<path d="M82.7051 54.147C82.8161 54.518 82.8741 54.887 82.8741 55.291C82.8741 55.861 82.7471 56.408 82.5161 56.912C82.9541 56.683 86.1191 55.148 84.8921 51.896C84.9581 51.996 82.6261 54.137 82.7051 54.147Z" fill="white"/>
<path d="M70.255 55.957C70.255 54.619 72.546 51.373 73.26 50.29C69.642 52.59 68.084 55.694 68.084 58.139C68.084 62.328 71.765 65.697 76.166 65.697C78.248 65.697 82.061 64.596 84.555 60.56C83.248 61.42 79.926 63.478 78.183 63.478C73.783 63.477 70.255 60.169 70.255 55.957Z" fill="white"/>
<path d="M101.227 59.791L101.284 76.746L103.975 76.9L103.443 57.572L101.227 59.791Z" fill="white"/>
<path d="M85.7812 27.5109L85.8363 29.0169L98.5892 25.2199L99.5342 41.4599L101.662 38.4779L101.208 22.1809L85.7812 27.5109Z" fill="white"/>
<path d="M124.332 33.326L112.353 22.332L110.919 25.513L121.462 35.418L124.332 33.326Z" fill="white"/>
<path d="M122.511 53.8141L108.447 49.1641L106.398 51.3281L120.409 56.9351C121.998 59.9291 124.406 62.4941 127.438 64.3691C130.373 66.1641 133.727 67.2391 137.279 67.5801V74.5001L139.451 75.5841L140.138 65.1881L122.511 53.8141Z" fill="white"/>
<path d="M145.095 51.858C148.549 51.025 150.541 49.223 152.256 47.24C150.969 48.296 144.517 49.702 143.433 50.069L141.308 52.332C142.279 52.418 143.903 52.156 145.095 51.858Z" fill="white"/>
<path d="M138.813 27.9429C132.444 28.7769 129.125 34.1239 128.576 34.7749C130.928 32.7879 133.876 31.3129 137.196 30.5269C145.077 28.6209 152.026 31.0239 156.321 36.3339L158.979 34.0839C154.725 28.8659 146.692 26.0429 138.813 27.9429Z" fill="white"/>
<path d="M160.174 53.9981C160.942 53.3521 162.307 52.6991 163.033 51.9381L154.505 44.3181C153.852 45.0991 153.26 46.3861 152.463 47.0631L160.174 53.9981Z" fill="white"/>
<path d="M203.938 74.4179C194.991 67.0639 195.526 51.2949 199.918 46.2919L195.976 21.5769L187.354 22.6899L186.97 24.8669H193.494L196.949 47.2909C192.553 52.3099 190.429 59.0339 191.898 65.1899C193.035 69.9469 195.957 73.7969 200.163 76.0239C200.586 76.2559 201.023 76.4579 201.47 76.6489L201.526 76.9779L204.091 77.3829C204.091 77.3819 204.358 74.6319 203.938 74.4179Z" fill="white"/>
<path d="M169.55 25.214L169.179 27.392H179.013L181.91 43.273L184.092 41.069L181.798 24.304L169.55 25.214Z" fill="white"/>
<path d="M186.385 56.0439L183.21 64.2459L183.996 66.3799L188.537 53.8889L186.385 56.0439Z" fill="white"/>
<path d="M176.956 50.8779L174.77 53.0609L172.427 67.8749L174.671 68.7319L176.956 50.8779Z" fill="white"/>
<path d="M221.123 46.146C222.41 47.065 223.508 48.228 224.334 49.611C224.986 50.672 225.479 51.86 225.794 53.164C226.865 57.617 225.584 62.433 222.753 66.297C222.468 66.689 222.154 67.068 221.854 67.44C223.004 66.451 236.972 56.148 223.325 42.616C208.315 37.668 202.633 47.461 202.102 48.082C203.688 46.734 205.518 45.619 207.5 44.861C212.58 42.937 217.578 43.604 221.123 46.146Z" fill="white"/>
<path d="M213.556 47.1219C213.598 47.2169 215.711 44.9199 215.754 44.9199C213.083 45.0299 211.8 46.3189 211.932 46.9139C211.772 47.1449 211.642 47.3739 211.54 47.6269C212.11 47.3429 213.164 47.1249 213.556 47.1219Z" fill="white"/>
<path d="M218.578 50.4789C218.674 50.8369 218.72 51.2119 218.712 51.6149C218.688 52.1309 218.554 52.6039 218.358 53.0449C218.764 52.8619 222.001 51.8569 220.765 48.2949C220.797 48.3959 218.543 50.4809 218.578 50.4789Z" fill="white"/>
<path d="M211.487 61.789C214.508 61.918 217.849 60.062 220.245 56.782C214.097 58.043 207.634 47.805 208.282 46.803C205.959 48.487 203.903 51.735 203.809 54.005C203.649 58.214 207.076 61.613 211.487 61.789Z" fill="white"/>
<path d="M245.178 88.4641L246.619 89.4281L264.207 36.6431L251.044 33.6011L250.879 36.6931L261.497 39.0491L245.178 88.4641Z" fill="white"/>
<path d="M224.291 27.9431L224.406 30.8911L238.401 33.7021L243.789 59.2551L245.97 57.0571L240.837 31.2411L224.291 27.9431Z" fill="white"/>
<path d="M235.061 57.062L231.208 78.854L233.427 79.573L237.252 54.916L235.061 57.062Z" fill="white"/>
<path d="M53.4449 86.8499L46.8989 63.1169L44.5029 64.7929L50.5699 87.5299L53.4449 86.8499Z" fill="white"/>
<path d="M51.746 51.1621C50.236 52.7641 46.889 55.8771 44.982 57.1051L43.824 53.3871L41.288 45.2351L39.676 39.7161L38.103 41.7351L39.709 47.2621L42.245 55.4081L43.398 59.1371C46.009 57.4551 49.807 54.2981 51.746 51.1621Z" fill="white"/>
<path d="M144.498 37.129C142.432 36.334 139.506 36.573 137.926 38.302C137.559 38.703 136.845 39.726 136.619 40.183C138.148 38.967 140.871 38.704 142.656 39.348L144.498 37.129Z" fill="black"/>
<path d="M49.8572 44.493C49.6252 43.273 48.4302 42.304 47.8442 42.035C46.7962 41.529 44.9832 41.45 43.6592 41.691C43.8972 42.513 44.1702 43.477 44.2862 43.872C44.8232 43.947 45.7052 44.107 46.1682 44.318C46.7492 44.598 47.7652 45.258 48.0012 46.486C48.3172 48.125 48.2342 49.657 47.5512 50.901C49.4242 49.063 50.3332 47.064 49.8572 44.493Z" fill="black"/>
<path d="M53.1368 44.4591C52.2378 39.6351 45.9298 36.9761 39.6758 40.3871L41.2878 45.9081L43.8238 54.067L44.9808 57.7831C49.6728 54.7661 54.3888 51.1411 53.1368 44.4591ZM46.9248 51.8771C46.2418 49.6481 44.7438 44.8351 44.7438 44.8351C44.7508 44.8571 44.4488 43.805 44.0908 42.601C45.4168 42.364 46.6908 42.4601 47.7388 42.9641C48.3248 43.2431 49.3548 43.894 49.5798 45.128C50.0978 47.902 49.1628 49.8821 46.9248 51.8771Z" fill="black"/>
<path d="M147.772 36.8051C144.276 33.5981 138.842 33.8471 135.653 37.3401C132.445 40.8271 132.697 46.2641 136.198 49.4581C136.483 49.7331 136.791 49.9581 137.101 50.1791L148.378 37.4081C148.179 37.2001 147.979 36.9931 147.772 36.8051ZM137.124 45.7881C136.021 43.7631 136.244 41.1921 137.893 39.3901C139.479 37.6621 141.909 37.1701 143.981 37.9691L137.124 45.7881Z" fill="black"/>
<path d="M162.84 35.4031L156.595 41.4201L162.528 46.7481L162.84 35.4031Z" fill="black"/>
<path d="M220.748 48.295C220.843 48.674 220.892 49.049 220.88 49.448C220.776 51.834 218.533 53.676 215.859 53.551C213.187 53.459 211.088 51.431 211.193 49.051C211.283 46.82 213.271 45.054 215.726 44.941C215.26 44.836 214.773 44.781 214.265 44.763C209.792 44.57 206.136 47.738 205.982 51.682C205.81 55.9 209.191 59.339 213.593 59.53C218.072 59.709 221.726 56.53 221.904 52.332C221.956 50.877 221.526 49.482 220.748 48.295Z" fill="black"/>
<path d="M85.0529 53.1119C85.0529 55.5079 82.8739 57.4279 80.2049 57.4279C77.5289 57.4279 75.3579 55.5069 75.3579 53.1119C75.3579 50.8789 77.2679 49.0379 79.7159 48.8239C79.2469 48.7389 78.7589 48.6899 78.2549 48.6899C73.7829 48.6899 70.2549 52.0069 70.2549 55.9569C70.2549 60.1719 73.7839 63.4779 78.1829 63.4779C82.6589 63.4779 86.1839 60.1699 86.1839 55.9569C86.1839 54.4979 85.7019 53.1229 84.8729 51.9909C84.9849 52.3319 85.0529 52.7099 85.0529 53.1119Z" fill="black"/>
<path d="M248.569 28.912L246.583 37.097L244.749 28.034L220.19 22.628L220.362 36.284L224.063 37.114L223.796 39.577C223.748 39.558 223.718 39.529 223.692 39.508C219.104 37.087 213.416 36.839 208.063 38.861C206.267 39.548 204.6 40.451 203.088 41.549L199.383 18.161H183.05L182.6 20.85H165.409L163.446 32.873L162.02 31.112C157.854 25.994 151.815 23.175 145.125 23.035L159.721 15.19L149.543 0.000976562L131.154 21.19L134.328 25.06C131.453 26.235 128.941 27.855 126.86 29.812L111.093 15.823L105.58 26.389L105.792 16.235L81.1411 24.11L81.7731 37.354L85.9671 36.266L86.5871 42.978C81.7951 40.826 76.0351 40.879 70.6931 43.136C69.1101 43.826 67.6341 44.674 66.2741 45.66C67.1981 41.571 66.9791 37.54 65.4211 33.945C63.5811 29.697 60.3431 26.186 56.3731 23.971C53.5901 22.117 50.2731 20.962 46.8021 20.569C38.2721 19.078 28.0291 20.609 17.9481 24.904C14.2421 26.485 10.7851 28.279 7.66707 30.265L3.72607 32.764L6.10607 36.783L13.4921 49.266C13.4921 49.266 15.7521 53.091 15.7671 53.089L19.7611 51.126L20.3181 50.87L38.6711 91.831L40.4411 95.768L44.5391 94.448L54.4691 91.267L58.8211 89.884L57.6731 85.454L52.3991 65.209C53.9161 64.086 55.3321 62.895 56.6391 61.648C56.3441 64.067 56.4991 66.516 57.1651 68.86C58.5441 73.768 61.7581 77.645 66.2181 79.793C71.0351 82.108 76.9121 82.114 82.3491 79.808C85.0761 78.651 87.5011 76.963 89.5561 74.954L90.3051 83.017L107.695 80.456L107.668 64.863L144.005 82.822V65.433C145.463 65.311 146.951 65.081 148.447 64.714C152.449 63.747 155.874 62.421 158.917 60.598L157.391 69.937L176.983 73.02L178.058 65.97L183.175 75.423L186.303 69.396L187.446 79.292L209.659 83.208L208.481 75.735C211.522 76.079 214.727 75.671 217.823 74.503C218.556 74.232 219.28 73.902 219.973 73.548L219.088 81.499L233.872 83.585L233.982 89.648L249.398 94.487L269.469 33.992L248.569 28.912ZM161.776 37.902L162.795 36.819L161.564 44.446L158.353 41.554L161.776 37.902ZM148.758 6.74598L154.14 14.057L138.753 21.685L137.69 20.07L148.758 6.74598ZM46.8691 63.123L53.0081 86.678L43.0721 89.852L22.6831 44.318C21.5741 44.901 19.5261 45.879 17.6451 46.801L10.2621 34.329C13.1981 32.454 16.4181 30.792 19.8431 29.345C29.4551 25.257 38.6261 24.037 45.9611 25.333C48.5561 25.625 51.3031 26.39 53.7091 27.987C57.0101 29.846 59.5351 32.492 60.9911 35.862C64.5421 44.068 58.6101 55.877 46.8691 63.123ZM92.5501 58.931C92.4361 62.438 91.1481 65.952 88.9921 68.925C86.9411 71.8 84.0761 74.173 80.7051 75.624C72.0851 79.276 63.4651 75.624 61.1621 67.44C58.9311 59.527 64.1221 50.107 72.4741 46.509C77.8081 44.257 83.1601 44.791 86.9941 47.396C89.3621 49.002 91.1681 51.417 92.0111 54.443C92.1171 54.764 92.1871 55.101 92.2581 55.431C92.4991 56.584 92.5961 57.766 92.5501 58.931ZM139.451 75.584L103.396 57.551L103.46 76.445L94.1331 77.717L93.4831 69.929C96.3631 64.991 97.4161 59.172 95.9131 53.836C95.0881 50.903 93.5641 48.357 91.4931 46.317L90.1551 30.438L85.9671 31.524L85.7821 27.509L100.76 23.049L101.678 38.497L112.712 22.994L123.499 33.267L108.414 49.159L122.586 54.765C124.169 57.765 126.584 60.314 129.614 62.192C132.543 64 135.899 65.069 139.449 65.42L139.451 75.584ZM120.73 49.458L115.715 47.523L120.39 42.979C120.19 45.065 120.293 47.246 120.73 49.458ZM159.967 54.182C156.507 57.044 152.563 58.91 147.352 60.169C146.213 60.43 145.097 60.62 144.005 60.716C135.734 61.529 128.795 57.731 126.162 51.571C125.834 50.825 125.581 50.07 125.39 49.264C124.172 44.076 125.212 39.439 127.775 35.806C128.513 34.746 129.389 33.78 130.373 32.91C132.787 30.756 135.869 29.19 139.373 28.348C147.252 26.448 154.191 28.853 158.445 34.073L143.431 50.054C144.449 50.246 146.068 49.979 147.263 49.693C150.839 48.821 152.84 46.923 154.603 44.855L160.603 50.253L162.421 51.895C161.633 52.71 160.805 53.479 159.967 54.182ZM191.82 75.509L188.554 53.874L183.935 65.809L177.019 50.892H176.941L174.208 68.167L162.681 66.161L164.302 56.521C164.737 56.112 165.165 55.702 165.586 55.269L169.322 51.422L165.691 48.17L169.549 25.213H181.179L184.09 41.105L187.352 22.688H195.671L199.123 45.126C194.73 50.13 192.596 56.857 194.064 63.011C195.199 67.782 198.131 71.624 202.334 73.868C202.757 74.081 203.195 74.292 203.647 74.474L204.087 77.383L191.82 75.509ZM220.545 68.46C219.274 69.365 217.875 70.134 216.371 70.689C213.402 71.82 210.449 72.055 207.818 71.532C205.984 71.17 204.312 70.455 202.857 69.42C200.543 67.746 198.839 65.274 198.088 62.17C197.212 58.441 198.019 54.459 200.025 50.971C201.025 49.266 202.308 47.664 203.826 46.283C205.519 44.765 207.482 43.522 209.666 42.682C214.749 40.786 219.762 41.44 223.291 43.977C224.589 44.897 225.666 46.068 226.515 47.429C227.159 48.504 227.659 49.689 227.962 50.983C229.043 55.461 227.756 60.257 224.931 64.121C223.721 65.768 222.246 67.248 220.545 68.46ZM246.5 88.852L237.976 86.313L237.233 54.887L232.946 79.13L223.647 77.646L224.313 70.666C230.385 65.535 233.604 57.441 231.84 50.106C231.065 46.858 229.395 44.03 227.041 41.88L227.826 33.648L224.31 32.712L224.545 28.317L240.566 31.537L245.953 57.083L251.478 34.18L263.666 36.873L246.5 88.852Z" fill="black"/>
<path d="M253.504 91.8303V89.4578H252.618V89.1404H254.75V89.4578H253.86V91.8303H253.504Z" fill="black"/>
<path d="M255.106 91.8303V89.1404H255.642L256.279 91.0449C256.338 91.2223 256.38 91.355 256.407 91.4431C256.438 91.3453 256.486 91.2015 256.55 91.0119L257.194 89.1404H257.673V91.8303H257.33V89.5789L256.549 91.8303H256.228L255.45 89.5404V91.8303H255.106Z" fill="black"/>
</g>
<defs>
<clipPath id="clip0_221_141">
<rect width="269.469" height="98.814" fill="white"/>
</clipPath>
</defs>
</svg>
